<svg version="1.1" id="Слой_1" xmlns="http://www.w3.org/2000/svg" xmlns:xlink="http://www.w3.org/1999/xlink" x="0px" y="0px"
	 viewBox="0 0 80.1 80" style="enable-background:new 0 0 80.1 80;" xml:space="preserve">
<title>icon</title>
<path d="M7.3,25.9L6.9,26c-0.1,0-0.2,0-0.3,0c0.1-0.1,0.3-0.2,0.5-0.2H7.3z"/>
<g>
	<path d="M58.8,50.7c-2.2,0-3.9-1.8-3.9-3.9s1.8-3.9,3.9-3.9c2.2,0,3.9,1.8,3.9,3.9S61,50.7,58.8,50.7z M58.8,44.8
		c-1.1,0-1.9,0.9-1.9,1.9s0.9,1.9,1.9,1.9c1.1,0,1.9-0.9,1.9-1.9S59.9,44.8,58.8,44.8z"/>
	<path d="M69.4,40.3h-0.3V26.6c0-1.6-1.3-2.8-2.8-2.8h-2.7l0.2-8.9c0-0.3-0.1-0.6-0.3-0.8c-0.2-0.2-0.5-0.3-0.8-0.2L56.3,15
		l-1.9-5.2c-0.2-0.5-0.7-0.8-1.3-0.6L9.2,23.8c-1.5,0.1-2.6,1.4-2.6,2.8v8c0,0.5,0.5,1,1,1s1-0.5,1-1v-8c0-0.3,0.1-0.5,0.4-0.7
		c0.1-0.1,0.3-0.2,0.5-0.2h56.8c0.5,0,0.8,0.4,0.8,0.8v13.7h-9.8c-2.8,0-5,2.2-5,5v3.2c0,2.8,2.3,5,5,5h9.8v14.1
		c0,0.5-0.4,0.8-0.8,0.8H9.4c-0.2,0-0.4-0.1-0.6-0.3c-0.2-0.2-0.3-0.5-0.3-0.6v-20c0-0.6-0.5-1-1-1s-1,0.4-1,1v20
		c0,0.4,0.1,1.3,0.8,2c0.5,0.5,1.3,0.8,2,0.8h56.8c1.6,0,2.8-1.3,2.8-2.8V53.5h0.3c2.8,0,5-2.2,5-5v-3.2
		C74.4,42.5,72.2,40.3,69.4,40.3z M52.8,11.5l1.4,3.9L24,21L52.8,11.5z M61.6,23.8H20l41.8-7.7L61.6,23.8z M72.4,48.5
		c0,1.7-1.3,3-3,3H57.3c-1.7,0-3-1.3-3-3v-3.2c0-1.7,1.3-3,3-3h12.1c1.7,0,3,1.3,3,3V48.5z"/>
	<path d="M9.5,25.8l-0.3,0.1c-0.1,0-0.2,0-0.3,0c0.1-0.1,0.3-0.2,0.5-0.2H9.5z"/>
	<path d="M62.8,65.9H45.1c-0.6,0-1-0.4-1-1s0.4-1,1-1h17.7c0.6,0,1,0.4,1,1S63.4,65.9,62.8,65.9z"/>
	<path d="M41.4,65.8H30c-0.6,0-1-0.4-1-1s0.4-1,1-1h11.4c0.6,0,1,0.4,1,1S42,65.8,41.4,65.8z"/>
</g>
</svg>
