<svg version="1.1" id="Слой_1" xmlns="http://www.w3.org/2000/svg" xmlns:xlink="http://www.w3.org/1999/xlink" x="0px" y="0px"
	 viewBox="0 0 80 80" style="enable-background:new 0 0 80 80;" xml:space="preserve">
<title>icon</title>
<path d="M70.3,48.6h-5.2c-1.6,0-2.9,1.2-3,2.8c-1.6-0.9-3-2-4.1-3.4c-1.3-1.6-2.3-3.5-3-5.5c-0.2-0.7-0.4-1.4-0.5-2.2
	c-0.3-1.6-0.6-3-2-4.1c-0.8-0.6-1.7-1-2.7-0.9c-1,0.1-1.9,0.5-2.6,1.2c-0.7,0.8-1.2,1.8-1.4,2.8c-0.4,2.2-0.3,4.5,0.1,6.8
	c0.2,1.1,0.4,2.3,0.7,3.4H35.2H35c-1.5,0.2-2.7,1.2-3.4,2.5c-0.7,1.5-0.5,3.2,0.5,4.5c-1.3,1.7-1.3,4.1,0,5.8
	c-0.7,0.8-1.1,1.8-1.1,2.9c0,1.1,0.5,2.1,1.3,2.9c-0.7,0.6-1,1.5-1.1,2.4c-0.1,2.1,1.4,3.9,3.4,4.2h0.2h5.8c7.2,0,15.5,0,16.7-0.2
	c0.3,0,0.6-0.1,0.8-0.2c0.8-0.3,1.6-0.7,2.2-1.4c0.1-0.1,0.2-0.2,0.3-0.3c0.4-0.4,1-0.6,1.5-0.7c0.3,1.4,1.5,2.3,2.9,2.3h5.2
	c1.7,0,3-1.3,3-3V51.6C73.3,49.9,72,48.6,70.3,48.6z M61.9,70.1c-0.9,0.1-1.8,0.5-2.5,1c-0.1,0.1-0.3,0.3-0.4,0.4
	c-0.4,0.4-0.9,0.7-1.4,0.9c-0.2,0.1-0.3,0.1-0.5,0.1c-1.1,0.2-9.3,0.2-22.1,0.2c-1-0.2-1.7-1.1-1.7-2.1c0.1-0.7,0.5-1.3,1.1-1.6
	l6.9-0.2c0.6,0,1-0.4,1-1l0,0c0-0.6-0.4-1-1-1L34.4,67c-0.7-0.4-1.2-1.1-1.2-1.9c0-0.7,0.3-1.3,0.8-1.8l7.5-0.1c0.6,0,1-0.4,1-1l0,0
	c0-0.6-0.4-1-1-1L34,61.4c-1.1-1.1-1.1-2.8-0.1-3.9h6.6c0.6,0,1-0.4,1-1s-0.4-1-1-1h-6.7c-0.7-0.7-0.9-1.8-0.5-2.7
	c0.4-0.7,1-1.1,1.8-1.3h12.6c0.3,0,0.6-0.1,0.8-0.4c0.2-0.2,0.3-0.6,0.2-0.9c-0.4-1.5-0.7-2.9-0.9-4.4c-0.4-2-0.4-4.1-0.1-6.1
	c0.1-0.7,0.4-1.3,0.8-1.8c0.3-0.4,0.8-0.6,1.3-0.7c0.5,0,1,0.2,1.3,0.5c0.8,0.6,1,1.4,1.3,2.9c0.1,0.8,0.3,1.6,0.6,2.4
	c0.8,2.2,1.9,4.3,3.4,6.2c1.5,1.8,3.4,3.2,5.5,4.2L61.9,70.1z M71.3,71.4c0,0.6-0.4,1-1,1h-5.2c-0.6,0-1-0.4-1-1V51.6
	c0-0.6,0.4-1,1-1h5.2c0.6,0,1,0.4,1,1V71.4z"/>
<path d="M69.3,62.5c-0.6,0-1-0.4-1-1l-0.1-8.9c0-0.6,0.4-1,1-1l0,0c0.6,0,1,0.4,1,1l0.1,8.9C70.3,62.1,69.9,62.5,69.3,62.5z"/>
<path d="M27.9,73.9H6.7c-0.3,0-0.5-0.1-0.7-0.3c-0.2-0.2-0.3-0.4-0.3-0.7l0-42.9c0-0.6,0.4-1,1-1l0,0c0.6,0,1,0.4,1,1v41.8h20.2
	c0.6,0,1,0.4,1,1S28.5,73.8,27.9,73.9L27.9,73.9z"/>
<path d="M58.9,20.7c0-0.1,0-0.2,0-0.2c0-0.2-0.1-0.3-0.3-0.5L45.2,6.5l-0.1-0.1l-0.2-0.2C44.7,6.1,44.5,6,44.2,6H6.7
	c-0.6,0-1,0.4-1,1v9.3c0,0.6,0.4,1,1,1s1-0.4,1-1V8h35.8v12.7c0,0.6,0.4,1,1,1h12.5v10.4c0,0.6,0.4,1,1,1s1-0.4,1-1V20.7z
	 M45.5,19.7v-10l10,10H45.5z"/>
<path d="M27.1,22.5c-0.4-0.4-1-0.5-1.4-0.1c0,0,0,0,0,0l-2.1,1.8v-0.9c0-0.6-0.4-1-1-1h-9.6c-0.6,0-1,0.4-1,1v9.2c0,0.6,0.4,1,1,1
	h9.6c0.6,0,1-0.4,1-1v-5.7l3.4-2.9C27.4,23.6,27.5,22.9,27.1,22.5C27.1,22.5,27.1,22.5,27.1,22.5z M21.6,31.5h-7.6v-7.2h7.6v1.6
	L19.2,28l-1.9-1.9c-0.4-0.4-1-0.4-1.4,0c-0.4,0.4-0.4,1,0,1.4c0,0,0,0,0,0l2.5,2.5c0.2,0.2,0.4,0.3,0.7,0.3c0.2,0,0.5-0.1,0.6-0.3
	l1.9-1.6L21.6,31.5z"/>
<path d="M27,38.9c-0.4-0.4-1-0.5-1.4-0.1l-2.1,1.8v-0.9c0-0.6-0.4-1-1-1H13c-0.6,0-1,0.4-1,1v9.2c0,0.6,0.4,1,1,1h9.6
	c0.6,0,1-0.4,1-1v-5.7l3.4-2.9C27.4,39.9,27.4,39.3,27,38.9z M21.5,47.9H14v-7.2h7.6v1.6l-2.5,2.1l-1.9-1.9c-0.4-0.4-1-0.4-1.4,0
	c0,0,0,0,0,0c-0.4,0.4-0.4,1,0,1.4l2.5,2.5c0.2,0.2,0.4,0.3,0.7,0.3c0.2,0,0.5-0.1,0.7-0.2l1.8-1.6L21.5,47.9z"/>
<path d="M27.3,55.4c-0.4-0.4-1-0.5-1.4-0.1c0,0,0,0,0,0l-2.1,1.8v-0.9c0-0.6-0.4-1-1-1h-9.6c-0.6,0-1,0.4-1,1v9.2c0,0.6,0.4,1,1,1
	h9.6c0.6,0,1-0.4,1-1v-5.7l3.4-2.9C27.6,56.5,27.7,55.8,27.3,55.4C27.3,55.4,27.3,55.4,27.3,55.4z M21.8,64.4h-7.6v-7.2h7.6v1.6
	L19.4,61l-1.9-1.9c-0.4-0.4-1-0.4-1.4,0c-0.4,0.4-0.4,1,0,1.4l2.5,2.5c0.4,0.4,1,0.4,1.4,0l1.9-1.6L21.8,64.4z"/>
<path d="M35,13.1H13c-0.6,0-1-0.4-1-1s0.4-1,1-1h22c0.6,0,1,0.4,1,1S35.6,13.1,35,13.1z"/>
<path d="M30.1,16.2H12.9c-0.6,0-1-0.4-1-1s0.4-1,1-1h17.3c0.6,0,1,0.4,1,1S30.7,16.2,30.1,16.2z"/>
<path d="M41.4,25.2H28.6c-0.6,0-1-0.4-1-1s0.4-1,1-1h12.8c0.6,0,1,0.4,1,1S41.9,25.2,41.4,25.2z"/>
<path d="M42.4,41h-14c-0.6,0-1-0.4-1-1s0.4-1,1-1h14c0.6,0,1,0.4,1,1S42.9,41,42.4,41z"/>
<path d="M45.8,30.2H28.5c-0.6,0-1-0.4-1-1s0.4-1,1-1h17.3c0.6,0,1,0.4,1,1S46.3,30.2,45.8,30.2z"/>
<path d="M42,46H28.6c-0.6,0-1-0.4-1-1s0.4-1,1-1H42c0.6,0,1,0.4,1,1S42.6,46,42,46z"/>
</svg>
