<svg version="1.1" id="Слой_1" xmlns="http://www.w3.org/2000/svg" xmlns:xlink="http://www.w3.org/1999/xlink" x="0px" y="0px"
	 viewBox="0 0 80 80" style="enable-background:new 0 0 80 80;" xml:space="preserve">
<style type="text/css">
	.st0{fill:#000;}
</style>
<title>icons</title>
<path class="st0" d="M71.5,50.4c-2-1.1-4.1,0-7.1,1.6l-0.8,0.4c-6.7,3.4-10,5.1-13.5,5.5c-2.5,0.1-5,0-7.5-0.3
	c-2.7-0.2-5.3-0.4-7.9-0.8c-0.6-0.1-1,0.3-1.1,0.9c0,0,0,0,0,0c-0.1,0.5,0.3,1,0.9,1.1c2.6,0.3,5.3,0.6,8.1,0.8
	c2.6,0.3,5.2,0.4,7.8,0.3c3.8-0.4,7.3-2.2,14.2-5.7l0.8-0.4c2.8-1.4,4.2-2.1,5.2-1.6c0.8,0.5,1.2,1.3,1.2,2.3c0,0.8-0.7,1.7-4,4.1
	c-2.3,1.7-4.8,3.2-7.3,4.6c-2.3,1.4-4.8,2.6-7.2,3.7c-5.2,1.9-9.9,1.4-13.8,1c-2.2-0.2-4.5-0.7-6.6-1.3c-2.6-0.8-5.3-1.3-8-1.4
	C23.5,65,22.2,65,20.9,65c-1,0-2,0-2.9,0.1V46.8c2.4,0.2,4.7,0.4,7.1,0.6c2.6,0.2,4,0.2,4.9,0.2c0.7-0.1,1.3,0,2,0.2
	c1.8,0.6,3.4,1.8,4.5,3.3c1.3,1.5,2.6,3,5.3,3.3c1.9,0.1,3.7,0.1,5.6-0.2h0.4c1.1-0.2,2.3-0.2,3.4,0.2c0.6,0.2,1.2,0.5,1.7,0.9
	c0.2,0.1,0.4,0.2,0.6,0.2v0.1c0.3,0,0.6-0.1,0.8-0.4c0.3-0.4,0.2-1.1-0.2-1.4c-0.7-0.5-1.5-0.9-2.3-1.2c-1.4-0.4-2.9-0.5-4.3-0.2
	h-0.4c-1.7,0.2-3.4,0.3-5.2,0.2c-1.9-0.2-2.9-1.3-4-2.7c-1.4-1.9-3.3-3.2-5.4-4c-0.8-0.3-1.7-0.4-2.5-0.3c-0.9,0-2.3,0-4.8-0.2
	c-2.4-0.1-4.9-0.3-7.3-0.6v-1.6c0-1.7-1.3-3-3-3H8c-1.7,0-3,1.3-3,3v25.9c0,1.7,1.3,3,3,3h7c1.7,0,3-1.3,3-3v-2.1
	c2.2-0.2,4.4-0.1,6.6,0c2.6,0.2,5.1,0.6,7.6,1.4c2.3,0.7,4.6,1.1,7,1.4c1.9,0.2,3.9,0.4,5.8,0.4c3,0,6.1-0.5,8.9-1.5
	c2.5-1.1,5-2.4,7.4-3.8c2.6-1.4,5.1-3,7.5-4.8c3.7-2.6,4.8-3.9,4.9-5.6C73.8,52.8,73,51.2,71.5,50.4z M16,69.2c0,0.5-0.5,1-1,1H8
	c-0.5,0-1-0.5-1-1V43.2c0-0.5,0.5-1,1-1h7c0.5,0,1,0.5,1,1V69.2z"/>
<path class="st0" d="M9.6,54.3c-0.6,0-1-0.4-1-1v-8.7c0-0.6,0.4-1,1-1s1,0.4,1,1v8.7C10.6,53.8,10.1,54.3,9.6,54.3z"/>
<path class="st0" d="M42.6,42.6c-0.8,0-1.5-0.3-2.1-0.8L28.4,29.9c-1.1-1.1-1.1-2.9,0-4c0,0,0,0,0,0l3.3-3.2c1.1-1.1,2.9-1.1,4,0
	l6.8,6.7L65,7.4c1.1-1.1,2.9-1.1,4,0l3.3,3.2c0.6,0.6,0.9,1.4,0.8,2.2c-0.1,0.6-0.3,1.2-0.8,1.7c-0.9,1-1.8,2-2.8,2.9
	c-0.5,0.3-1.1,0.1-1.4-0.4c-0.2-0.3-0.2-0.8,0.1-1.1c0.9-0.8,1.8-1.7,2.7-2.7c0.2-0.2,0.3-0.4,0.3-0.6c0-0.3-0.1-0.5-0.3-0.7
	l-3.2-3.1c-0.4-0.3-0.9-0.3-1.3,0L43.2,31.5c-0.4,0.4-1,0.4-1.4,0l-7.5-7.4c-0.4-0.3-0.9-0.3-1.3,0l-3.3,3.2
	c-0.2,0.2-0.2,0.4-0.2,0.6c0,0.2,0.1,0.4,0.2,0.6l12.1,11.9c0.2,0.2,0.5,0.3,0.8,0.2c0.2,0,0.3-0.1,0.5-0.3c0.9-0.8,9-8.7,19.7-19.4
	c0.4-0.4,1-0.4,1.4,0c0.4,0.4,0.4,1,0,1.4C53.5,33.1,45.4,41,44.5,41.8c-0.4,0.4-1,0.7-1.5,0.8C42.9,42.6,42.7,42.6,42.6,42.6z"/>
<path class="st0" d="M42.3,38.7c-0.3,0-0.5-0.1-0.7-0.3c-0.4-0.4-0.4-1,0-1.4c0,0,0,0,0,0l8.4-8.2c0.4-0.4,1-0.5,1.4-0.1
	c0.4,0.4,0.5,1,0.1,1.4c0,0-0.1,0.1-0.1,0.1l-8.3,8.2C42.9,38.6,42.6,38.7,42.3,38.7z"/>
</svg>
