<?xml version="1.0" encoding="UTF-8"?> <!-- Generator: Adobe Illustrator 17.1.0, SVG Export Plug-In . SVG Version: 6.00 Build 0) --> <svg xmlns="http://www.w3.org/2000/svg" xmlns:xlink="http://www.w3.org/1999/xlink" id="Layer_1" x="0px" y="0px" viewBox="28 25 80 80" fill="#ee6d07" xml:space="preserve"> <path d="M90,56.6h-6v4c-0.6-0.2,3,2.7,3,4v7.1c2,0.4,4,2,4,3.9c0,1.2-1.1,2.6-1.8,3.3c0.8,0.7,1.8,1.5,1.8,2.7 c0,1.2-1.1,2.5-1.8,3.2c0.8,0.7,1.8,1.6,1.8,2.8c0,1.2-1.1,2.4-1.8,3.1c1.4,1.3,3.7,3.4-0.8,6c-1.1,0.6-2.3,0.9-3.5,0.9H76 c-1.2,0-3.3-0.1-4-1h-8c-1.6,0-3.2-1.1-4-2.6c-0.2-0.4-0.5-0.7-1-1c-0.2,0.3-0.6,0.6-1,0.6l-4.1,0c0,0.6-1.4,1-2,1H33.9 c-0.5,0-0.9-0.4-0.9-0.9V75.5c0-0.5,0.4-0.9,0.9-0.9H52c0.6,0,2,1.4,2,2h4c0.3,0,0.7-0.3,0.9,0c0.2,0,0.5-0.1,0.8-0.2 c0.9-0.4,2.1-0.7,2.3-1.8v-10c0.3-2.4,2.6-5,5-5c1.3,0,3.1,1.1,4,2c0.9,0.9,1,1.8,1,3v7h1v-7c0-1.4,3.5-4.1,3-4v-4c0,0-5.4,0-6,0 c-0.3-0.2-2-1.7-2-2v-14c0-2.8,1.1-5.6,3-7.5c0.5-0.5,1.1-0.9,1.7-1.3l6.4-4.2c0.4-0.2,1.9-0.1,1.9-0.1c-0.3-0.2,6.6,4.3,6.6,4.3 c2.9,1.9,4.5,5.3,4.5,8.8v14C92,55.1,90.6,56.6,90,56.6z M52,85.6h-9c-0.6,0-1-0.4-1-1c0-0.6,0.4-1,1-1h9v-7H35v16h17V85.6z M57,78.6h-3v13h3V78.6z M85,64.6c0,0-1.7-2-3-2h-1v4h4V64.6z M82,60.6v-14c0-1-1.8-2-2-2c-0.8,0-2,1.2-2,2v14H82z M81,68.6l0,3h4 v-3H81z M75.8,95.5h10.5c1,0,2.6-0.9,2.6-1.9s-2-2-3-2h-6c-0.6,0-1-0.4-1-1c0-0.6,0.5-1,1.1-1h6.3c1,0,2.6-1,2.6-2c0-1-2-2-3-2h-9.7 c-0.4,0-0.8,0.1-1.1,0.4c-2.3,1.6-0.8,3.6,0.8,3.6c0.6,0,1,0.4,1,1c0,0.6-0.5,1.2-1.2,1.2l0.2-0.2c-1,0-2,1-2,2S74.8,95.5,75.8,95.5 z M81,79.6h-6c-1.4,0-0.9,1.8-1,3c-0.1,0.6,0.3,1,0.8,1h11.7c0.5,0,1-0.2,1.4-0.5c2.6-2-0.1-3.1-1.6-3.1c-0.6,0-1.1-0.5-1.1-1.1 c0-0.6,0.5-1.1,1.1-1.1l0,0c1,0,2.7-1.2,2.6-2.2c-0.1-1-2-2-3-2H73.8c0.6,4-0.4,4,1.2,4h6c0.6,0,2,0.4,2,1 C83,79.2,81.6,79.6,81,79.6z M71.2,73.6c-0.1,0-0.2,0.1-0.2,0c-0.2-0.2-1-0.7-1-1v-9c-0.5-1.3-2.3-2-3-2c-1.2,0-2.9,1.8-3,3v10 c-0.6,2.9-3.3,3.8-5,4v5h1c2.7,0,4.8-2.1,5.3-4.7c0.1-0.6,0.7-1,1.3-0.9c0.6,0.1,1,0.7,0.9,1.3l0,0c-0.7,3.7-3.8,6.3-7.5,6.3h-1v5 c1.2,0.3,2.4,1.2,3,2.3c0.4,0.8,1.2,1.7,2,1.7h8c0-0.1,0-0.9,0-1c0-1.2,0.2-2.3,1-3c-0.8-0.7-1.2-1.7-1.2-2.8c0-1.2,0.5-2.2,1.3-3 c-0.8-0.7-1-2.1-1-3.2c0-1.2,0.3-1.9,1-2.7c-0.8-0.8-1.3-1.8-1.3-3c0-0.7,1-1.8,1.2-2.4H71.2z M79,71.6v-3h-4v3H79z M75,64.5v2.1h4 v-4h-2.1C75.9,62.6,75,63.4,75,64.5z M90,40.6c0-2.8-1.3-5.5-3.6-7.1L80,29.6l-6.3,3.9C71.4,35,70,37.8,70,40.6v14h6v-8 c0-1.6,2.8-4,4-4c1.4,0,4,2.4,4,4v8h6V40.6z M62,64.6C62,64.6,61.4,64.7,62,64.6z M70,56.6L70,56.6L70,56.6 C70.8,56.6,70.4,56.8,70,56.6z M70,56.5L70,56.5C69.9,56.5,69.9,56.5,70,56.5z"></path> </svg>
