<svg width="48" height="56" viewBox="0 0 48 56" fill="none" xmlns="http://www.w3.org/2000/svg">
<path fill-rule="evenodd" clip-rule="evenodd" d="M42 10.9851V45.015C42 48.7738 39.3137 51.8209 36 51.8209H12C8.68629 51.8209 6 48.7738 6 45.015V10.9851C6 7.22627 8.68629 4.17914 12 4.17914H36C39.3137 4.17914 42 7.22627 42 10.9851ZM39 10.9851C39 9.10569 37.6569 7.58212 36 7.58212H12C10.3431 7.58212 9 9.10569 9 10.9851V45.015C9 46.8944 10.3431 48.4179 12 48.4179H36C37.6569 48.4179 39 46.8944 39 45.015V10.9851ZM31.5 17.7911C32.3284 17.7911 33 17.0293 33 16.0896C33 15.1499 32.3284 14.3881 31.5 14.3881H16.5C15.6716 14.3881 15 15.1499 15 16.0896C15 17.0293 15.6716 17.7911 16.5 17.7911H31.5ZM33 24.597C33 25.5368 32.3284 26.2985 31.5 26.2985H16.5C15.6716 26.2985 15 25.5368 15 24.597C15 23.6573 15.6716 22.8956 16.5 22.8956H31.5C32.3284 22.8956 33 23.6573 33 24.597ZM25.5 34.806C26.3284 34.806 27 34.0442 27 33.1045C27 32.1648 26.3284 31.403 25.5 31.403H16.5C15.6716 31.403 15 32.1648 15 33.1045C15 34.0442 15.6716 34.806 16.5 34.806H25.5Z" fill="#979797"/>
</svg>
